<svg fill="none" height="24" viewBox="0 0 173 24" width="173" xmlns="http://www.w3.org/2000/svg"><g fill="#cdd9e4"><path d="m31.3947 13.9521v-9.99019h2.8359v9.76469c0 1.2246.3438 2.1806 1.0313 2.8681.6946.6875 1.6435 1.0313 2.8467 1.0313 1.1816 0 2.1126-.3438 2.7929-1.0313.6875-.6875 1.0313-1.6435 1.0313-2.8681v-9.76469h2.8574v9.99019c0 1.948-.6087 3.4805-1.8262 4.5977-1.2031 1.11-2.8288 1.665-4.8769 1.665-2.1413 0-3.792-.555-4.9522-1.665-1.1601-1.1172-1.7402-2.6497-1.7402-4.5977zm18.22 6.0479h-2.7178v-11.65527h2.3956l.3222 2.14847h.1826c.3653-.75915.8845-1.34281 1.5577-1.75101.6731-.41537 1.443-.62305 2.3095-.62305 1.2963 0 2.2917.42969 2.9864 1.28906.6946.8522 1.0419 2.0303 1.0419 3.5342v7.0576h-2.75v-6.7783c0-1.862-.7985-2.793-2.3955-2.793-.888 0-1.6005.3187-2.1377.9561-.5299.6302-.7949 1.4573-.7949 2.4814zm12.956-13.30957h-2.6963v-2.94336h2.6963zm0 13.30957h-2.6963v-11.65527h2.6963zm5.8274 0-4.0928-11.65527h2.9649l1.6542 5.40327 1.0528 3.7491h.1289l1.042-3.7276 1.6435-5.42477h2.9756l-4.0498 11.65527zm7.8474-5.8545c0-1.8763.5013-3.348 1.5039-4.41503 1.0097-1.07422 2.3776-1.61133 4.1035-1.61133 1.6185 0 2.9147.47624 3.8887 1.42871.9882.94535 1.4824 2.25225 1.4824 3.92095 0 .5299-.0322.9703-.0967 1.3212h-8.0889v.6338c0 .8021.2578 1.4466.7735 1.9336.5228.487 1.2103.7305 2.0625.7305.6803 0 1.2568-.1504 1.7295-.4512.4798-.3079.8056-.7161.9775-1.2246h2.707c-.2506 1.153-.8593 2.0768-1.8261 2.7715-1.0026.6875-2.1986 1.0312-3.5879 1.0312-1.7617 0-3.1403-.5406-4.1358-1.622-.9954-1.1029-1.4931-2.5853-1.4931-4.4473zm2.7929-1.4502v.2256h5.4571v-.3115c0-.7162-.2471-1.2891-.7412-1.7188-.487-.4368-1.1351-.6552-1.9444-.6552-.8307 0-1.5003.2255-2.0088.6767-.5084.4512-.7627 1.0456-.7627 1.7832zm12.3488-4.35057h3.9961v2.21287h-3.6308v9.4424h-2.7178v-9.3242c0-.6087.1217-1.12437.3652-1.54689.3008-.52279.9632-.78418 1.9873-.78418zm4.9951 8.04587h2.6856c.0071.5658.2184 1.0134.6338 1.3428.4153.3223.9743.4834 1.6753.4834.659 0 1.171-.1289 1.537-.3867.365-.265.547-.6338.547-1.1065 0-.7161-.447-1.1494-1.342-1.2998l-2.2669-.4189c-2.1843-.3796-3.2764-1.4574-3.2764-3.2334 0-1.1387.4189-2.03029 1.2568-2.67482.8451-.65169 1.9802-.97754 3.4055-.97754 1.439 0 2.574.32943 3.405.98828.838.65169 1.275 1.53258 1.311 2.64258h-2.707c-.008-.5299-.194-.9382-.559-1.2246-.358-.2865-.849-.4297-1.472-.4297-.616 0-1.088.1253-1.4176.376-.3295.2435-.4942.5872-.4942 1.0312 0 .7448.5514 1.1924 1.6548 1.3428l2.126.376c2.127.3294 3.191 1.4144 3.191 3.2549 0 1.1673-.441 2.0839-1.321 2.75-.874.6588-2.066.9882-3.578.9882-1.5536 0-2.7746-.3473-3.6626-1.0419-.8881-.6947-1.3321-1.6221-1.3321-2.7823zm11.3167-2.2451c0-1.8763.502-3.348 1.504-4.41503 1.01-1.07422 2.378-1.61133 4.104-1.61133 1.618 0 2.915.47624 3.889 1.42871.988.94535 1.482 2.25225 1.482 3.92095 0 .5299-.032.9703-.097 1.3212h-8.089v.6338c0 .8021.258 1.4466.774 1.9336.523.487 1.21.7305 2.062.7305.681 0 1.257-.1504 1.73-.4512.48-.3079.806-.7161.977-1.2246h2.707c-.25 1.153-.859 2.0768-1.826 2.7715-1.002.6875-2.198 1.0312-3.588 1.0312-1.761 0-3.14-.5406-4.135-1.622-.996-1.1029-1.494-2.5853-1.494-4.4473zm2.793-1.4502v.2256h5.457v-.3115c0-.7162-.247-1.2891-.741-1.7188-.487-.4368-1.135-.6552-1.944-.6552-.831 0-1.5.2255-2.009.6767-.508.4512-.763 1.0456-.763 1.7832z"/><path d="m128.519 17.959h4.909v2.041h-10.517v-1.6328l6.252-6.5313c1.01-1.0742 1.515-1.9622 1.515-2.66402v-.88086c0-.6875-.276-1.24252-.827-1.66504-.545-.42969-1.221-.64453-2.031-.64453-.888 0-1.604.26139-2.148.78417-.537.52279-.806 1.21029-.806 2.0625v.38672h-2.245c-.043-1.61849.419-2.90039 1.386-3.8457.974-.95247 2.274-1.42871 3.899-1.42871 1.569 0 2.829.43327 3.782 1.2998.952.86654 1.428 1.99447 1.428 3.38379 0 .6875-.132 1.33203-.397 1.93358-.251.6159-.505 1.085-.763 1.4072-.25.3295-.605.7269-1.063 1.1924l-4.684 4.9307c.817-.0859 1.586-.1289 2.31-.1289zm12.005-14.01857c3.71 0 5.565 2.71419 5.565 8.14257 0 5.4212-1.855 8.1318-5.565 8.1318-3.752 0-5.629-2.7106-5.629-8.1318 0-5.42838 1.877-8.14257 5.629-8.14257zm-3.104 5.76855v4.74802c0 1.2032.268 2.127.805 2.7715s1.289.9668 2.256.9668c.96 0 1.712-.3115 2.256-.9346.551-.6302.827-1.5647.827-2.8037v-4.74802c0-1.23893-.276-2.1735-.827-2.80371-.544-.6302-1.296-.94531-2.256-.94531-.967 0-1.719.32227-2.256.9668s-.805 1.57194-.805 2.78222zm16.259 8.25002h4.909v2.041h-10.517v-1.6328l6.252-6.5313c1.01-1.0742 1.515-1.9622 1.515-2.66402v-.88086c0-.6875-.276-1.24252-.827-1.66504-.545-.42969-1.221-.64453-2.031-.64453-.888 0-1.604.26139-2.148.78417-.537.52279-.806 1.21029-.806 2.0625v.38672h-2.245c-.043-1.61849.419-2.90039 1.386-3.8457.974-.95247 2.274-1.42871 3.899-1.42871 1.569 0 2.829.43327 3.782 1.2998.952.86654 1.428 1.99447 1.428 3.38379 0 .6875-.132 1.33203-.397 1.93358-.251.6159-.505 1.085-.763 1.4072-.251.3295-.605.7269-1.063 1.1924l-4.684 4.9307c.816-.0859 1.586-.1289 2.31-.1289zm12.424 0h4.909v2.041h-10.517v-1.6328l6.252-6.5313c1.01-1.0742 1.515-1.9622 1.515-2.66402v-.88086c0-.6875-.276-1.24252-.827-1.66504-.545-.42969-1.221-.64453-2.031-.64453-.888 0-1.604.26139-2.148.78417-.537.52279-.806 1.21029-.806 2.0625v.38672h-2.245c-.043-1.61849.419-2.90039 1.386-3.8457.974-.95247 2.274-1.42871 3.899-1.42871 1.569 0 2.829.43327 3.782 1.2998.952.86654 1.428 1.99447 1.428 3.38379 0 .6875-.132 1.33203-.397 1.93358-.251.6159-.505 1.085-.763 1.4072-.251.3295-.605.7269-1.063 1.1924l-4.684 4.9307c.816-.0859 1.586-.1289 2.31-.1289z"/><path clip-rule="evenodd" d="m12.2135 0c-6.75383 0-12.2135 5.50022-12.2135 12.3042 0 5.4391 3.49823 10.043 8.35127 11.6727.60663.1222.82906-.2648.82906-.5908 0-.2852-.02022-1.263-.02022-2.2815-3.39713.7333-4.10486-1.4668-4.10486-1.4668-.54597-1.426-1.35481-1.7926-1.35481-1.7926-1.11215-.7538.08088-.7538.08088-.7538 1.23348.0815 1.88056 1.263 1.88056 1.263 1.09193 1.8742 2.85115 1.3445 3.55889 1.0186.1011-.7945.42464-1.3445.7684-1.6501-2.70962-.2852-5.56077-1.3445-5.56077-6.0706 0-1.3445.4853-2.44452 1.2537-3.30011-.12133-.30557-.54597-1.56858.12132-3.25939 0 0 1.03127-.32594 3.35669 1.26301.97059-.26482 2.02209-.40742 3.05339-.40742 1.0312 0 2.0827.1426 3.0533.40742 2.3255-1.58895 3.3567-1.26301 3.3567-1.26301.6673 1.69081.2427 2.95382.1214 3.25939.7886.85559 1.2537 1.95561 1.2537 3.30011 0 4.7261-2.8512 5.7651-5.581 6.0706.4448.3871.829 1.1205.829 2.2816 0 1.6501-.0202 2.9742-.0202 3.3816 0 .326.2224.713.8291.5908 4.853-1.6297 8.3512-6.2336 8.3512-11.6727.0202-6.80398-5.4596-12.3042-12.1932-12.3042z" fill-rule="evenodd"/></g></svg>
